<svg id="bec9359b-8ad6-40be-b1a1-920c3332df03" data-name="bc284073-cdae-4608-aef9-72ef305d2a87" xmlns="http://www.w3.org/2000/svg" viewBox="0 0 20 20"><title>icon</title><polyline points="0 0 20 0 20 20 0 20" fill="#23282d" opacity="0"/><path d="M14,10h4V7.5a.5.5,0,0,0-.5-.5H14Z" fill="#fff"/><path d="M8.429,6.568A1.754,1.754,0,0,0,7.5,6H1.038c.07.5.236,1,.462,1h3a.5.5,0,0,1,0,1H2.077A1.344,1.344,0,0,0,3.5,9h2a.5.5,0,0,1,0,1h-2l-.121,0c.367.53.813,1,1.121,1h6a.5.5,0,1,0-.006-1A1.456,1.456,0,0,1,9,8.5v-1A1.771,1.771,0,0,0,8.429,6.568Z" fill="#fff"/><path d="M6.5,14h0a1.5,1.5,0,0,0,0,3h0a1.5,1.5,0,0,0,0-3Z" fill="#fff"/><path d="M19.724,11.053l-.14-.07A.463.463,0,0,1,19.5,11H14v1.5a.5.5,0,0,1-1,0V2H2.5a.5.5,0,0,0-.5.5V5H7.505a2.677,2.677,0,0,1,1.632.862A2.691,2.691,0,0,1,10,7.5v1a.457.457,0,0,0,.5.5,1.5,1.5,0,0,1,0,3h-6c-1.246,0-2.257-1.9-2.447-2.276A.508.508,0,0,1,2,9.566l0,0V15.5a.5.5,0,0,0,.5.5H4.05A2.579,2.579,0,0,1,4,15.509,2.5,2.5,0,0,1,6.491,13H6.5A2.5,2.5,0,0,1,9,15.491,2.072,2.072,0,0,1,8.95,16h4.1a2.579,2.579,0,0,1-.05-.491A2.5,2.5,0,0,1,15.491,13H15.5a2.486,2.486,0,0,1,2.441,3.024c0-.008.007-.015.009-.024H19.5a.5.5,0,0,0,.5-.5v-4A.5.5,0,0,0,19.724,11.053Z" fill="#fff"/><path d="M15.5,14H15.5a1.5,1.5,0,0,0,.005,3h.005a1.5,1.5,0,0,0-.005-3Z" fill="#fff"/></svg>