<svg xmlns="http://www.w3.org/2000/svg" viewBox="0 0 122.01 95.6"><path d="M113.1,44.9a1.16,1.16,0,0,1-1.2-1.2,9.6,9.6,0,0,0-9.6-9.6,1.2,1.2,0,1,1-.2-2.4h.2a9.6,9.6,0,0,0,9.6-9.6,1.2,1.2,0,1,1,2.4-.2v.2a9.6,9.6,0,0,0,9.6,9.6A1.21,1.21,0,0,1,125,33a1.18,1.18,0,0,1-1.1,1.1,9.6,9.6,0,0,0-9.6,9.6,1.1,1.1,0,0,1-1.2,1.2Zm-5.5-12a12.2,12.2,0,0,1,5.5,5.5,12.2,12.2,0,0,1,5.5-5.5,12.2,12.2,0,0,1-5.5-5.5A11.31,11.31,0,0,1,107.6,32.9Z" transform="translate(-3 -16.2)" fill="#e4cdac"/><path d="M81.5,16.2H11.2A8,8,0,0,0,3,24V72.5a8,8,0,0,0,8.2,7.8H54.3a1.5,1.5,0,0,0,0-3H11.2A5,5,0,0,1,6,72.5V34H86.8V50a1.5,1.5,0,1,0,3,0V24.1A8.13,8.13,0,0,0,81.5,16.2ZM6,31V24a5,5,0,0,1,5.2-4.8H81.5A5,5,0,0,1,86.7,24v7Z" transform="translate(-3 -16.2)" fill="#c1aa95"/><circle cx="10.8" cy="8.5" r="2.4" fill="#c1aa95"/><circle cx="18" cy="8.5" r="2.4" fill="#c1aa95"/><circle cx="25.2" cy="8.5" r="2.4" fill="#c1aa95"/><path d="M31.6,55.2a14.53,14.53,0,0,0,8.2,13.1l-7-19.1A15.67,15.67,0,0,0,31.6,55.2Zm24.5-.7a7.21,7.21,0,0,0-1.2-4A7.34,7.34,0,0,1,53.4,47a2.62,2.62,0,0,1,2.4-2.6H56a14.65,14.65,0,0,0-20.6.9A22,22,0,0,0,34,47.1h1c1.5,0,3.9-.2,3.9-.2a.65.65,0,0,1,.6.6.63.63,0,0,1-.5.6,15.44,15.44,0,0,1-1.7.1L42.6,64l3.2-9.6-2.3-6.2a11.93,11.93,0,0,1-1.5-.1.63.63,0,0,1-.4-.8c.1-.2.2-.4.5-.4,0,0,2.4.2,3.8.2s3.9-.2,3.9-.2a.65.65,0,0,1,.6.6.63.63,0,0,1-.5.6,15.44,15.44,0,0,1-1.7.1L53.5,64,55,59.1A17.2,17.2,0,0,0,56.1,54.5Zm-9.6,2L42.1,69.2a14,14,0,0,0,4.1.6,16.22,16.22,0,0,0,4.9-.8c0-.1-.1-.1-.1-.2ZM59,48.2a7.57,7.57,0,0,1,.1,1.5A13.1,13.1,0,0,1,58,54.9L53.5,67.8A14.63,14.63,0,0,0,59,48.2Z" transform="translate(-3 -16.2)" fill="#c1aa95"/><path d="M29.2,55.2a17,17,0,1,0,17-17,17,17,0,0,0-17,17Zm.8,0A16.2,16.2,0,1,1,46.2,71.4h0A16.13,16.13,0,0,1,30,55.2Z" transform="translate(-3 -16.2)" fill="#c1aa95"/><circle cx="86.4" cy="69.4" r="23.4" fill="#edddc5"/><path d="M88.2,111.8a27.4,27.4,0,1,1,27.4-27.4h0A27.44,27.44,0,0,1,88.2,111.8Zm0-51.9a24.4,24.4,0,1,0,24.4,24.4h0A24.5,24.5,0,0,0,88.2,59.9Z" transform="translate(-3 -16.2)" fill="#c1aa95"/><path d="M82.4,85.6a1.47,1.47,0,0,0,1.5-1.5,1.5,1.5,0,0,0-.4-1.1L79,78.5h21.2a1.5,1.5,0,0,0,0-3H79l4.4-4.3a1.48,1.48,0,0,0-2.1-2.1l-7,6.8a1.61,1.61,0,0,0-.5,1.1,1.78,1.78,0,0,0,.4,1l7,7.2A1.75,1.75,0,0,0,82.4,85.6Z" transform="translate(-3 -16.2)" fill="#c1aa95"/><path d="M102.1,90.7l-7-7.2a1.55,1.55,0,0,0-2.1.1,1.42,1.42,0,0,0,0,2l4.5,4.6H76.2a1.5,1.5,0,0,0,0,3H97.4L93,97.5a1.48,1.48,0,0,0,2.1,2.1l7-6.8a1.28,1.28,0,0,0,.4-1A1.19,1.19,0,0,0,102.1,90.7Z" transform="translate(-3 -16.2)" fill="#c1aa95"/><path d="M34.3,107.4a4,4,0,1,1-4-4,4,4,0,0,1,4,4" transform="translate(-3 -16.2)" fill="#e4cdac"/><path d="M52.9,107.6a3,3,0,1,1-3-3,3,3,0,0,1,3,3" transform="translate(-3 -16.2)" fill="#e4cdac"/><path d="M18.3,98.6a6,6,0,1,1-6-6,6,6,0,0,1,6,6" transform="translate(-3 -16.2)" fill="#e4cdac"/></svg>