<svg id="a96eb5ac-dc68-4251-9128-0b086d6e1c2b" data-name="Icons" xmlns="http://www.w3.org/2000/svg" viewBox="0 0 144 144"><title>All-Icons-Source</title><path d="M104,43H21V71H35c3.951-.013,7.986,4.049,8,8v2a4.755,4.755,0,0,0,4.119,4.364C48.363,85.559,48.95,86.707,49,88c.1,2.606-2.505,3-3,3H26c-2.188-.03-3.963-2.7-5-4.73h0V111H35a8,8,0,0,0,16,0h62a8,8,0,0,0,16,0h6V96l-7-8-6-17H104Z" fill="#ecf3da"/><path d="M74.5,49A22.5,22.5,0,1,0,97,71.5,22.525,22.525,0,0,0,74.5,49ZM54.271,71.5a20.16,20.16,0,0,1,1.751-8.233l9.65,26.438A20.228,20.228,0,0,1,54.271,71.5ZM74.5,91.731a20.225,20.225,0,0,1-5.715-.824l6.07-17.637,6.218,17.036a1.823,1.823,0,0,0,.145.278A20.2,20.2,0,0,1,74.5,91.731Zm2.788-29.715c1.217-.064,2.315-.192,2.315-.192a.836.836,0,0,0-.129-1.667s-3.277.257-5.392.257c-1.988,0-5.328-.257-5.328-.257a.836.836,0,0,0-.128,1.667s1.032.128,2.122.192L73.9,70.651,69.472,83.928,62.106,62.016c1.218-.064,2.315-.192,2.315-.192a.836.836,0,0,0-.13-1.667s-3.276.257-5.391.257c-.38,0-.827-.009-1.3-.025A20.224,20.224,0,0,1,88.16,56.583c-.087-.006-.172-.017-.262-.017a3.5,3.5,0,0,0-3.4,3.591c0,1.667.962,3.077,1.987,4.744a10.651,10.651,0,0,1,1.668,5.579c0,1.732-.666,3.741-1.539,6.54L84.6,83.761Zm14.963-.22a20.231,20.231,0,0,1-7.581,27.19l6.179-17.865a19.1,19.1,0,0,0,1.538-7.245A15.505,15.505,0,0,0,92.251,61.8Z" fill="#577635"/><path d="M135.752,95.343l-6.873-7.855-5.936-16.82A1,1,0,0,0,122,70H105V43a1,1,0,0,0-1-1H21a1,1,0,0,0-1,1V70H9a1,1,0,0,0-.945,1.328C8.68,73.13,10.953,79,13.992,79h.237c.485,1.607,1.885,5.116,5.035,5.882.162.408.412.992.736,1.645V111a1,1,0,0,0,1,1H34.058A8.993,8.993,0,0,0,43,120h.032a9.011,9.011,0,0,0,8.909-8h60.118A8.993,8.993,0,0,0,121,120h.032a9.011,9.011,0,0,0,8.909-8H135a1,1,0,0,0,1-1V96A1,1,0,0,0,135.752,95.343ZM16.338,79H25a1,1,0,0,0,0-2H14c-.931,0-2.465-2.427-3.541-5H35.02C38.4,72,41.988,75.6,42,79v2a5.749,5.749,0,0,0,4.965,5.348c.881.138,1.018,1.225,1.036,1.686a1.671,1.671,0,0,1-.42,1.287A2.656,2.656,0,0,1,46,90H26.014c-1.836-.025-3.585-2.968-4.52-5H30a1,1,0,0,0,0-2H20.063C18,82.718,16.858,80.448,16.338,79ZM22,89.683A5.541,5.541,0,0,0,26,92H46a4.57,4.57,0,0,0,3.019-1.29A3.659,3.659,0,0,0,50,87.962c-.076-1.961-1.121-3.335-2.726-3.586A3.764,3.764,0,0,1,44,81V79c-.016-4.547-4.459-9-8.976-9H22V44h81v66H51.942a8.933,8.933,0,0,0-2.6-5.386A9.126,9.126,0,0,0,42.969,102a9.013,9.013,0,0,0-8.909,8H22ZM43.024,118H43a7,7,0,0,1-.023-14H43a7,7,0,0,1,.023,14Zm78,0H121a7,7,0,0,1-.023-14H121a7,7,0,0,1,.023,14ZM134,110h-4.058A8.995,8.995,0,0,0,121,102h-.032a9.013,9.013,0,0,0-8.909,8H105V72h16.292l5.3,15H112a1,1,0,0,0,0,2h15.547L134,96.377Z" fill="#577635"/><path d="M14.82,36.616a7,7,0,1,0-2.746-4.6A6.967,6.967,0,0,0,14.82,36.616Zm.17-8.6h0a5,5,0,1,1-.937,3.71A5,5,0,0,1,14.99,28.016Z" fill="#577635"/><path d="M118.684,54.95l15,5A.981.981,0,0,0,134,60a1,1,0,0,0,.98-1.2l-3-15a1,1,0,0,0-1.62-.572l-12,10a1,1,0,0,0,.324,1.717Zm11.665-9.105,2.333,11.663L121.019,53.62Z" fill="#577635"/><path d="M31.115,35.535a1,1,0,0,0,1.77.933,11.213,11.213,0,0,0-1.095-12.08,1,1,0,1,0-1.58,1.227A9.327,9.327,0,0,1,31.115,35.535Z" fill="#577635"/></svg>